<svg xmlns="http://www.w3.org/2000/svg" viewBox="0 0 30 30"><defs><style>.cls-1{fill:#fff;}.cls-2{fill:#2890cf;}</style></defs><title>danh_muc_don_vi</title><g id="Layer_2" data-name="Layer 2"><g id="Layer_1-2" data-name="Layer 1"><circle class="cls-1" cx="15" cy="15" r="15"/><path class="cls-2" d="M22.89,11.23a.66.66,0,0,0,.62-.68V9.71a.6.6,0,0,0-.62-.61H18.61v2.58L15,14.18l-3.61-2.51V9.1H7.15a.64.64,0,0,0-.67.61v.84a.69.69,0,0,0,.67.68h.43V21.87H7.15a.64.64,0,0,0-.67.61v.84a.69.69,0,0,0,.67.68H22.89a.66.66,0,0,0,.62-.68v-.84a.6.6,0,0,0-.62-.61h-.47V11.23ZM11.52,21.72V16.09h-.77V14.73h8.44v1.36h-.68v5.63Zm.84.15"/><path class="cls-2" d="M12.29,11.17,15,13l2.68-1.84V6.56A.53.53,0,0,0,17.06,6H13c-.36,0-.71.2-.71.56Zm1.05-2.51,1.13-.18.52-1,.52,1,1.13.18-.81.81L16,10.59l-1-.52-1,.52.18-1.13Zm0,0"/></g></g></svg>