<svg xmlns="http://www.w3.org/2000/svg" viewBox="0 0 30 30"><defs><style>.cls-1{fill:#fff;}.cls-2{fill:#2890cf;}</style></defs><title>danh_muc_co_quan_bao_hiem</title><g id="Layer_2" data-name="Layer 2"><g id="Layer_1-2" data-name="Layer 1"><circle class="cls-1" cx="15" cy="15" r="15"/><path class="cls-2" d="M8.28,20.72l.12-2,.26-4.2c0-.08,0-.16,0-.23s-.06-.22-.23-.22c-.48,0-.54-.06-.63-.55H6.57c-.47,0-.51-.08-.56-.54a1,1,0,0,1,.63-1.08c2.67-1.48,5.32-3,8-4.48a.73.73,0,0,1,.78,0l8.25,4.63a.6.6,0,0,1,.35.6c0,.83,0,.84-.84.84h-1c-.14.58-.14.58-.82.64l.36,6.56a3.79,3.79,0,0,1,.53.06,1,1,0,0,1,.72,1,1,1,0,0,1-.9.88H8.17a1.15,1.15,0,0,1-.8-.25.92.92,0,0,1-.29-1,1,1,0,0,1,.85-.65Zm2.39-6.63.45,6.63H19c.1-2.22.29-4.42.32-6.65-.44,0-.87,0-.82-.54H11.43C11.38,14,11.35,14,10.67,14.1Z"/><circle class="cls-2" cx="14.97" cy="17.28" r="2.01"/></g></g></svg>