<svg xmlns="http://www.w3.org/2000/svg" viewBox="0 0 30 30"><defs><style>.cls-1{fill:#fff;}.cls-2{fill:#2890cf;}</style></defs><title>danh_muc_he_thong</title><g id="Layer_2" data-name="Layer 2"><g id="Layer_1-2" data-name="Layer 1"><circle class="cls-1" cx="15" cy="15" r="15"/><path class="cls-2" d="M15,23.17H7.31c-.92,0-1.31-.39-1.31-1.29Q6,15,6,8.13c0-.89.39-1.29,1.27-1.29H22.74c.86,0,1.26.4,1.26,1.27Q24,15,24,21.89c0,.88-.4,1.27-1.29,1.27ZM7.32,10.72V21.86h8.41c-.25-.32-.07-.5.16-.66a4.19,4.19,0,0,0,.47-.36.32.32,0,0,0,.1-.25c-.06-.25-.15-.49-.22-.72-.31,0-.6-.06-.9-.07s-.37-.15-.35-.41.05-.61.06-.91.14-.4.42-.38l.87.06.35-.8c-.21-.23-.39-.45-.6-.64s-.22-.41,0-.62.4-.4.58-.61.39-.21.6,0,.4.49.63.53.5-.2.75-.32l.06-.06-.11-.89c0-.22.06-.36.29-.39l.94-.12c.27,0,.43.05.46.33s.07.6.11.89l.89.21.31-.46c.36-.56.4-.65,1-.24,0,0,.06,0,.11,0V10.72Zm11.12,8.46A1.53,1.53,0,1,0,20,17.67,1.54,1.54,0,0,0,18.44,19.17ZM17.8,8.87c0,.51.12.64.59.64s.6-.13.6-.64-.1-.63-.6-.63S17.8,8.35,17.8,8.87Zm3,0c0-.53-.09-.62-.6-.62s-.6.12-.6.63.14.64.61.64S20.85,9.38,20.85,8.86Zm.69,0c0,.54.11.66.6.66s.6-.17.6-.66-.13-.61-.59-.61S21.53,8.31,21.53,8.85Z"/></g></g></svg>