<svg xmlns="http://www.w3.org/2000/svg" viewBox="0 0 30 30"><defs><style>.cls-1{fill:#fff;}.cls-2{fill:#2890cf;}</style></defs><title>danh_muc_quy_trinh</title><g id="Layer_2" data-name="Layer 2"><g id="Layer_1-2" data-name="Layer 1"><circle class="cls-1" cx="15" cy="15" r="15"/><path class="cls-2" d="M17.34,8.71A2.58,2.58,0,1,0,16.06,10l3,3a3.86,3.86,0,0,1,.56-.72,3.76,3.76,0,0,1,.72-.56Zm-1.62-.34a1,1,0,1,1,0-1.45,1,1,0,0,1,0,1.45Zm0,0"/><path class="cls-2" d="M16.82,20.53A2.58,2.58,0,0,0,13.93,20l-3-3a3.71,3.71,0,0,1-1.28,1.28l3,3a2.58,2.58,0,1,0,4.17-.75Zm-1.1,2.55a1,1,0,1,1,0-1.45,1,1,0,0,1,0,1.45Zm0,0"/><path class="cls-2" d="M24.18,13.17A2.58,2.58,0,0,0,20,16.06l-3,3a3.7,3.7,0,0,1,1.28,1.28l3-3a2.58,2.58,0,0,0,2.89-4.17Zm-1.1,2.56a1,1,0,1,1,0-1.45,1,1,0,0,1,0,1.45Zm0,0"/><path class="cls-2" d="M13,10.92a3.7,3.7,0,0,1-1.28-1.28l-3,3A2.58,2.58,0,1,0,10,13.94Zm-4.63,4.8a1,1,0,1,1,0-1.45,1,1,0,0,1,0,1.45Zm0,0"/><circle class="cls-2" cx="7.69" cy="15.07" r="1.15"/><circle class="cls-2" cx="14.95" cy="7.59" r="1.21"/><circle class="cls-2" cx="22.35" cy="15" r="1.1"/><circle class="cls-2" cx="15" cy="22.37" r="1.1"/></g></g></svg>