<svg xmlns="http://www.w3.org/2000/svg" viewBox="0 0 16 15.09"><defs><style>.cls-1,.cls-2{fill:#545553;}.cls-2{fill-rule:evenodd;}</style></defs><title>xem_giay_hen</title><g id="Layer_2" data-name="Layer 2"><g id="Layer_1-2" data-name="Layer 1"><path class="cls-1" d="M16,.82v9.94a2.81,2.81,0,0,1-2.3,2.76L4.1,15.09a.82.82,0,0,1-.63-.3.84.84,0,0,1-.18-.54V11.68a.8.8,0,0,1,1.11-.74h0a.8.8,0,0,1,.5.74V13L10.84,10a.82.82,0,0,1,1.17.73,1.18,1.18,0,0,0,1.17,1.19h.12a1.21,1.21,0,0,0,1.07-1.22V1.63H4.91v.63a.8.8,0,0,1-.65.79h0a.82.82,0,0,1-1-.79V.82A.82.82,0,0,1,4.11,0H15.19A.82.82,0,0,1,16,.82Z"/><path class="cls-2" d="M3.28,6.8a1.09,1.09,0,0,0,2.19,0h0a.64.64,0,1,1-.73-1,1.08,1.08,0,0,0-.36-.06A1.09,1.09,0,0,0,3.28,6.8ZM8.5,6.18a5.93,5.93,0,0,0-4.13-2.3A5.94,5.94,0,0,0,.24,6.18,1.07,1.07,0,0,0,0,6.8a1.07,1.07,0,0,0,.24.62,5.93,5.93,0,0,0,4.13,2.3A5.93,5.93,0,0,0,8.5,7.43a1.06,1.06,0,0,0,.24-.62A1.06,1.06,0,0,0,8.5,6.18ZM4.37,8.63A1.82,1.82,0,1,1,6.2,6.8,1.82,1.82,0,0,1,4.37,8.63Z"/></g></g></svg>