<svg xmlns="http://www.w3.org/2000/svg" viewBox="0 0 30 30"><defs><style>.cls-1{fill:#fff;}.cls-2{fill:#268fce;}</style></defs><title>ho_so_trinh_ky</title><g id="Layer_2" data-name="Layer 2"><g id="Layer_1-2" data-name="Layer 1"><circle class="cls-1" cx="15" cy="15" r="15"/><g id="pencil"><path class="cls-2" d="M20.68,20.15c.14.11.06.28-.18.38l-1.73.7c-.24.09-.41,0-.37-.29l.28-1.85c0-.25.18-.38.32-.27Z"/><path class="cls-2" d="M22.26,19.11l3-3.74.62-.81-1-.81-.55-.43-1-.81-.63.8-3,3.74a1.36,1.36,0,0,0,.4,1.62l.55.43A1.36,1.36,0,0,0,22.26,19.11Z"/><path class="cls-2" d="M23.62,11.93l.66.53,1.35,1.07.66.54.63-.8a.86.86,0,0,0-.14-1.19L25.43,11a.85.85,0,0,0-1.2.14Z"/></g><polygon class="cls-2" points="13.09 7.82 4.94 11.53 15.79 16.45 21.22 13.98 22.71 12.18 13.09 7.82"/><path class="cls-2" d="M22.7,19.38l-.85,1.13-3.08,1.34s-.84.3-1.12-.17l-1.86.85L6,17.92l-1.22.56,11,5.16,8.15-3.71-1.22-.56Z"/><polygon class="cls-2" points="15.79 20.13 5.96 15.61 4.74 16.16 15.79 21.24 17.69 20.37 17.91 19.16 15.79 20.13"/><polygon class="cls-2" points="19.5 16.04 15.79 17.73 5.85 13.17 4.62 13.73 15.79 18.84 18.16 17.77 18.18 17.63 19.5 16.04"/></g></g></svg>