<svg xmlns="http://www.w3.org/2000/svg" viewBox="0 0 13.34 15"><defs><style>.cls-1{fill:#535353;}</style></defs><title>icon_dong</title><g id="Layer_2" data-name="Layer 2"><g id="Layer_1-2" data-name="Layer 1"><path class="cls-1" d="M8.82,2h0a.34.34,0,0,0-.33.33V4.46c0,.21.14.27.35.37h0a4.11,4.11,0,1,1-4.07-.14c.2-.09.3-.15.34-.35V2.27a.33.33,0,0,0-.33-.32h0A6.67,6.67,0,1,0,8.82,2Z"/><path class="cls-1" d="M6.75,7.41A1.06,1.06,0,0,0,7.82,6.35V1.06a1.06,1.06,0,1,0-2.13,0V6.35A1.06,1.06,0,0,0,6.75,7.41Z"/></g></g></svg>