<svg xmlns="http://www.w3.org/2000/svg" viewBox="0 0 30 30"><defs><style>.cls-1{fill:#fff;}.cls-2{fill:#268fce;}</style></defs><title>danh_muc_nhom_quyen</title><g id="Layer_2" data-name="Layer 2"><g id="Layer_1-2" data-name="Layer 1"><circle class="cls-1" cx="15" cy="15" r="15"/><path class="cls-2" d="M15,10.16a1.93,1.93,0,0,0-2.18,2.14c0,1.93.84,3.1,2.18,3.08,0,0,2.18.09,2.18-3.08A1.92,1.92,0,0,0,15,10.16Zm0,0"/><path class="cls-2" d="M22.58,20.41a2.42,2.42,0,0,0-.81.14l-1.06-1.06a7.26,7.26,0,0,0,0-9l1.06-1.06A2.42,2.42,0,1,0,20.29,8L19.2,9.06a7.26,7.26,0,0,0-8.39,0L9.71,8A2.42,2.42,0,1,0,8.23,9.45l1.06,1.06a7.26,7.26,0,0,0,0,9L8.23,20.55A2.42,2.42,0,1,0,9.71,22l1.09-1.09a7.26,7.26,0,0,0,8.39,0L20.29,22a2.42,2.42,0,1,0,2.29-1.62Zm-3.05-1.66c-.08-.79-.25-1.73-.67-1.9L16.68,16l-.51-.43a.34.34,0,0,0-.46,0l-.71.7-.71-.71a.34.34,0,0,0-.46,0l-.51.43-2.18.87c-.42.17-.59,1.11-.67,1.9a5.87,5.87,0,1,1,9,0Zm0,0"/></g></g></svg>