<svg xmlns="http://www.w3.org/2000/svg" viewBox="0 0 30 30"><defs><style>.cls-1{fill:#fff;}.cls-2{fill:#268fce;}</style></defs><title>ho_so_dang_thu_ly</title><g id="Layer_2" data-name="Layer 2"><g id="Layer_1-2" data-name="Layer 1"><circle class="cls-1" cx="15" cy="15" r="15"/><path class="cls-2" d="M21.37,14.86a.19.19,0,0,0,.27,0l1.19-1a.86.86,0,0,0,.21-.63v-1l-1.39,1.17a.19.19,0,0,1-.27,0L20,12.1v1a.89.89,0,0,0,.19.62Z"/><path class="cls-2" d="M21.4,12.44a.15.15,0,0,0,.21,0l1.26-1.06a.67.67,0,0,0,.16-.49V9.81L21.61,11a.15.15,0,0,1-.21,0L20,9.65v1.12a.69.69,0,0,0,.15.48Z"/><path class="cls-2" d="M21.44,19.87a.09.09,0,0,0,.13,0l3-2.67a.41.41,0,0,0,.09-.29V13.75c0-.23-.12-.39-.22-.29L21.57,16a.09.09,0,0,1-.13,0L18.6,13.28c-.11-.1-.23.05-.23.29v3.15a.42.42,0,0,0,.09.29Z"/><path class="cls-2" d="M18.85,12.51l.6.52V11.4l-6.8-3.08-7.46,3.4,9.93,4.5,2.55-1.16c0-.87-.05-1.79-.05-2.36C17.62,11.39,18.85,12.51,18.85,12.51Z"/><polygon class="cls-2" points="15.12 21.78 6.17 17.57 5.05 18.08 15.12 22.8 20.79 20.23 20.07 19.53 15.12 21.78"/><polygon class="cls-2" points="15.12 19.59 6.13 15.45 5.01 15.96 15.12 20.61 19.24 18.74 18.52 18.04 15.12 19.59"/><path class="cls-2" d="M15.12,17.4,6,13.22l-1.12.51,10.22,4.68,2.63-1.2c0-.16,0-.52,0-1Z"/></g></g></svg>