<svg xmlns="http://www.w3.org/2000/svg" viewBox="0 0 30 30"><defs><style>.cls-1{fill:#fff;}.cls-2{fill:#268fce;}</style></defs><title>cau_hinh_chung_he_thong</title><g id="Layer_2" data-name="Layer 2"><g id="Layer_1-2" data-name="Layer 1"><circle class="cls-1" cx="15" cy="15" r="15"/><path class="cls-2" d="M22.67,13a4.69,4.69,0,0,0-.93-.56l0-.81a.52.52,0,0,0-.44-.54l-1.22-.19a.52.52,0,0,0-.58.38l-.22.78a4.61,4.61,0,0,0-1.09.26l-.56-.6a.52.52,0,0,0-.69-.07l-1,.73a.52.52,0,0,0-.15.68l.39.69a4.66,4.66,0,0,0-.63,1l-.78,0a.52.52,0,0,0-.54.44l-.19,1.22a.52.52,0,0,0,.38.58l.74.21a4.55,4.55,0,0,0,.27,1.15l-.54.5a.52.52,0,0,0-.07.69l.73,1a.52.52,0,0,0,.68.15l.64-.36a4.58,4.58,0,0,0,1,.61l0,.72a.52.52,0,0,0,.44.54l1.22.19a.52.52,0,0,0,.58-.38l.19-.67a4.6,4.6,0,0,0,1.2-.28l.48.52a.52.52,0,0,0,.69.07l1-.73a.52.52,0,0,0,.15-.68l-.35-.62a4.58,4.58,0,0,0,.65-1.08l.72,0a.52.52,0,0,0,.54-.44l.19-1.22a.52.52,0,0,0-.38-.58L24.44,16a4.5,4.5,0,0,0-.29-1.13l.56-.52a.52.52,0,0,0,.07-.69l-.73-1a.52.52,0,0,0-.68-.15ZM21,18.28a2,2,0,1,1,.45-2.85A2,2,0,0,1,21,18.28Zm0,0"/><path class="cls-2" d="M9,22.52l.85.06a.51.51,0,0,0,.54-.42l.09-.48a3.72,3.72,0,0,0,1-.31l.37.34a.52.52,0,0,0,.69,0l.64-.56a.52.52,0,0,0,.09-.68L13,20.06a3.73,3.73,0,0,0,.46-.93l.52,0a.52.52,0,0,0,.49-.48l.06-.85a.51.51,0,0,0-.42-.54l-.54-.1a3.85,3.85,0,0,0-.32-.9l.37-.4a.52.52,0,0,0,0-.69L13,14.49a.52.52,0,0,0-.68-.09l-.48.33a3.79,3.79,0,0,0-.79-.39l0-.59a.52.52,0,0,0-.48-.49l-.85-.06a.51.51,0,0,0-.54.42l-.11.57a3.73,3.73,0,0,0-.87.28l-.44-.4a.52.52,0,0,0-.69,0l-.64.56a.52.52,0,0,0-.09.68l.32.47a3.82,3.82,0,0,0-.45.87l-.56,0a.52.52,0,0,0-.49.48L5.1,18a.51.51,0,0,0,.42.54l.54.1a3.72,3.72,0,0,0,.3.92L6,20a.52.52,0,0,0,0,.69l.56.64a.52.52,0,0,0,.68.09l.43-.29a3.75,3.75,0,0,0,.85.43l0,.51a.51.51,0,0,0,.48.5Zm-.3-5.85A1.67,1.67,0,1,1,8.54,19a1.67,1.67,0,0,1,.17-2.36Zm0,0"/><path class="cls-2" d="M15.85,8.64A.52.52,0,0,0,15.92,8l-.3-.43A.52.52,0,0,0,15,7.38l-.34.19A3,3,0,0,0,14,7.19l0-.39a.52.52,0,0,0-.43-.54l-.52-.09a.52.52,0,0,0-.58.37l-.11.37a3,3,0,0,0-.73.16l-.27-.3a.52.52,0,0,0-.68-.07l-.43.3a.52.52,0,0,0-.15.67L10.3,8a3.1,3.1,0,0,0-.43.67l-.37,0A.52.52,0,0,0,9,9.09l-.09.52a.52.52,0,0,0,.37.58l.35.1a3,3,0,0,0,.17.77l-.26.23a.52.52,0,0,0-.07.68l.3.43a.51.51,0,0,0,.67.15l.3-.16a3.11,3.11,0,0,0,.65.42l0,.33a.52.52,0,0,0,.43.54l.52.09a.52.52,0,0,0,.58-.37l.09-.3a3,3,0,0,0,.8-.18l.22.24a.52.52,0,0,0,.68.07l.43-.3a.51.51,0,0,0,.15-.67L15.08,12a3.12,3.12,0,0,0,.44-.72l.33,0a.52.52,0,0,0,.54-.43l.09-.52a.52.52,0,0,0-.37-.58l-.35-.1a3,3,0,0,0-.19-.76Zm-2.38,2.46a1.36,1.36,0,1,1,.32-1.9,1.36,1.36,0,0,1-.32,1.9Zm0,0"/></g></g></svg>