<svg xmlns="http://www.w3.org/2000/svg" viewBox="0 0 30 30"><defs><style>.cls-1{fill:#fff;}.cls-2{fill:#268fce;}</style></defs><title>bao_cao_05bc_bhxh</title><g id="Layer_2" data-name="Layer 2"><g id="Layer_1-2" data-name="Layer 1"><circle class="cls-1" cx="15" cy="15" r="15"/><path class="cls-2" d="M23.61,8.5V20.28a3.33,3.33,0,0,1-2.72,3.27L9.5,25.41a1,1,0,0,1-.75-.36,1,1,0,0,1-.21-.64v-3a1,1,0,0,1,1.31-.88h0a1,1,0,0,1,.59.88v1.51l7-3.49a1,1,0,0,1,1.39.87,1.4,1.4,0,0,0,1.39,1.41h.14a1.44,1.44,0,0,0,1.27-1.45V9.46H10.47v.74a1,1,0,0,1-.77.94h0a1,1,0,0,1-1.13-.94V8.5a1,1,0,0,1,1-1H22.65A1,1,0,0,1,23.61,8.5Z"/><path class="cls-2" d="M7.57,14.27c-.34,0-.56.43-.56,1.33s.21,1.32.56,1.32.55-.44.55-1.33S7.94,14.27,7.57,14.27Z"/><path class="cls-2" d="M13.62,12.12H5.24a1.37,1.37,0,0,0-1.37,1.38v4.25a1.37,1.37,0,0,0,1.37,1.38h8.38A1.37,1.37,0,0,0,15,17.74V13.49A1.37,1.37,0,0,0,13.62,12.12ZM7.55,17.61c-1,0-1.45-.91-1.46-2s.48-2,1.49-2,1.45.93,1.45,2S8.55,17.61,7.55,17.61Zm3,0a2.47,2.47,0,0,1-1.08-.22l.16-.68a2.24,2.24,0,0,0,.88.19c.38,0,.78-.18.78-.59s-.32-.65-1.1-.65a3.3,3.3,0,0,0-.53,0l.26-2h2.15v.75H10.58l-.08.6h.25a1.78,1.78,0,0,1,1,.28,1.11,1.11,0,0,1,.47,1A1.49,1.49,0,0,1,10.57,17.61Z"/></g></g></svg>