<svg xmlns="http://www.w3.org/2000/svg" viewBox="0 0 30 30"><defs><style>.cls-1{fill:#fff;}.cls-2,.cls-3{fill:#1182c5;}.cls-2{fill-rule:evenodd;}</style></defs><title>danh_sach_nguoi_dung</title><g id="Layer_2" data-name="Layer 2"><g id="Layer_1-2" data-name="Layer 1"><circle class="cls-1" cx="15" cy="15" r="15"/><polygon class="cls-2" points="15.27 9.2 9.45 9.2 9.45 8.31 15.97 8.31 15.27 9.2"/><polygon class="cls-2" points="14.18 16.64 9.45 16.64 9.45 15.75 15.79 15.75 14.18 16.64"/><circle class="cls-3" cx="7.54" cy="8.67" r="1.29"/><circle class="cls-3" cx="6.29" cy="12.48" r="1.29"/><circle class="cls-3" cx="7.54" cy="16.21" r="1.29"/><circle class="cls-3" cx="6.87" cy="19.91" r="1.29"/><rect class="cls-3" x="8.67" y="19.48" width="3.43" height="0.89"/><polygon class="cls-2" points="14.86 12.92 8.15 12.92 8.15 12.03 14.72 12.03 14.86 12.92"/><path class="cls-2" d="M24.59,18.57A4.65,4.65,0,0,0,22,16.89L20.93,20.5a.63.63,0,0,1-1.25,0V17.63a.78.78,0,0,0-1.57,0V20.5a.63.63,0,0,1-1.25,0l-1.07-3.61a4.67,4.67,0,0,0-2.59,1.67,2.67,2.67,0,0,0-.41,1.33c0,.09,0,.2,0,.3v1.21A1.23,1.23,0,0,0,14,22.62h9.7A1.23,1.23,0,0,0,25,21.41V20.2c0-.11,0-.21,0-.3A2.68,2.68,0,0,0,24.59,18.57Zm-9-7.26c0,1.77,1.14,4.36,3.29,4.36s3.29-2.6,3.29-4.36a3.29,3.29,0,0,0-6.57,0Z"/></g></g></svg>