<svg xmlns="http://www.w3.org/2000/svg" viewBox="0 0 30 30"><defs><style>.cls-1{fill:#fff;}.cls-2{fill:#268fce;}</style></defs><title>ho_so_da_duyet</title><g id="Layer_2" data-name="Layer 2"><g id="Layer_1-2" data-name="Layer 1"><circle class="cls-1" cx="15" cy="15" r="15"/><g id="agreement"><g id="pencil"><path class="cls-2" d="M17.32,17.22c.14.12.05.29-.2.39l-1.83.71c-.25.1-.42,0-.38-.31l.31-1.94c0-.27.19-.39.34-.28Z"/><path class="cls-2" d="M19,16.15l3.15-3.9.67-.84-1.07-.87-.57-.46-1.08-.87-.67.83-3.15,3.9a1.43,1.43,0,0,0,.4,1.71l.57.46A1.44,1.44,0,0,0,19,16.15Z"/><path class="cls-2" d="M20.51,8.62l.68.56,1.41,1.14.69.58.66-.83a.9.9,0,0,0-.13-1.26l-1.4-1.14a.9.9,0,0,0-1.26.13Z"/></g><path class="cls-2" d="M14.13,19.58,12.4,21.3a.61.61,0,0,1-.86,0l-.86-.86a.61.61,0,0,1,.86-.87L12,20l1.3-1.29a.61.61,0,0,1,.86,0A.61.61,0,0,1,14.13,19.58Z"/><path class="cls-2" d="M20.15,19.93V16.3l-.38.48a.94.94,0,0,1-.18.17,2.27,2.27,0,0,1-.42.25v2.63H16.72v2.51H10.36a1.22,1.22,0,0,1-1.23-1.22V9.6a1.23,1.23,0,0,1,.36-.87,1.22,1.22,0,0,1,.87-.36h7.57A1.19,1.19,0,0,1,19,9l.66-.87L19.53,8A2.11,2.11,0,0,0,18,7.36H10.26a2.11,2.11,0,0,0-2.1,2.11V21.25a2.1,2.1,0,0,0,2.11,2.1h6.52a.85.85,0,0,0,.6-.24l2.53-2.53a.84.84,0,0,0,.25-.57s0-.06,0-.09Z"/><path class="cls-2" d="M17.65,10.36h-7a.5.5,0,1,0,0,1h6.41l.77-1A.5.5,0,0,0,17.65,10.36Z"/><path class="cls-2" d="M16.25,12.36h-5.6a.5.5,0,1,0,0,1h4.79l0,0Z"/><path class="cls-2" d="M15.14,14.8a2.15,2.15,0,0,1,0-.45H10.66a.5.5,0,1,0,0,1h3.78A1.22,1.22,0,0,1,15.14,14.8Z"/><path class="cls-2" d="M10.66,16.35a.5.5,0,1,0,0,1H14l.16-1Z"/></g></g></g></svg>