<svg xmlns="http://www.w3.org/2000/svg" viewBox="0 0 30 30"><defs><style>.cls-1{fill:#fff;}.cls-2{fill:#268fce;}</style></defs><title>bao_cao_tong_hop_toan_nghanh</title><g id="Layer_2" data-name="Layer 2"><g id="Layer_1-2" data-name="Layer 1"><circle class="cls-1" cx="15" cy="15" r="15"/><path class="cls-2" d="M17,9.62a.57.57,0,0,1,.57-.57H18.7a.57.57,0,0,1,0,1.13H17.57A.57.57,0,0,1,17,9.62Zm1.7,1.66h-.85a.57.57,0,0,0,0,1.13h.85a.57.57,0,0,0,0-1.13Zm-2.61,2.78a.57.57,0,0,0,.57.57H18.7a.57.57,0,0,0,0-1.13h-2a.57.57,0,0,0-.57.56Zm-4.54,2.78H18.7a.57.57,0,0,0,0-1.13H11.55a.57.57,0,0,0,0,1.13Zm0,2.21h3.74a.57.57,0,0,0,.07-1.13H11.55a.57.57,0,0,0,0,1.13Zm0,2.21h3.74a.57.57,0,0,0,.07-1.13H11.55a.57.57,0,0,0,0,1.13Zm2.76-9.63h2a.27.27,0,0,0,.27-.27h0A2.28,2.28,0,0,0,14.3,9.08a.27.27,0,0,0-.27.27v2A.27.27,0,0,0,14.31,11.62Zm-1.13,3.06a2.29,2.29,0,0,0,2.39-2.16.14.14,0,0,0-.13-.14h-2a.17.17,0,0,1-.17-.17v-2a.14.14,0,0,0-.14-.14h0a2.29,2.29,0,0,0,0,4.58ZM23.94,20a1.52,1.52,0,0,1-1,1.89L19.14,23l-.76.76a.89.89,0,0,1-.62.26h-2l-3.59,1.07a1.52,1.52,0,0,1-1.89-1v0H9.48A1.52,1.52,0,0,1,8,22.49V16.38L6.06,10a1.52,1.52,0,0,1,1-1.89L8,7.87V7.8A1.52,1.52,0,0,1,9.48,6.28h3.83l4.55-1.36a1.52,1.52,0,0,1,1.89,1h0l.1.34h.91A1.52,1.52,0,0,1,22.29,7.8v6.64ZM20.52,8H9.73v14.2h7.15V19.49a.89.89,0,0,1,.88-.88h2.76Z"/></g></g></svg>