<svg xmlns="http://www.w3.org/2000/svg" viewBox="0 0 30 30"><defs><style>.cls-1{fill:#fff;}.cls-2{fill:#268fce;}</style></defs><title>ho_so_da_tra</title><g id="Layer_2" data-name="Layer 2"><g id="Layer_1-2" data-name="Layer 1"><circle class="cls-1" cx="15" cy="15" r="15"/><path class="cls-2" d="M19.4,10.53,12.58,7.89,5.41,11l9.16,4.21A5.89,5.89,0,0,1,19.4,10.53Z"/><path class="cls-2" d="M16.36,21.93,7.12,17.67l-1.19.54L16.36,23l2.29-1a5.85,5.85,0,0,1-1.22-.53Z"/><path class="cls-2" d="M15.12,19,6.8,15.22l-1.19.54,10.75,4.92h0A5.91,5.91,0,0,1,15.12,19Z"/><path class="cls-2" d="M6.33,12.7l-1.19.54,9.45,4.31a5.91,5.91,0,0,1-.12-1.14Z"/><path class="cls-2" d="M20.37,11.57a4.77,4.77,0,1,0,4.77,4.77A4.77,4.77,0,0,0,20.37,11.57Zm2.89,4.91L22.06,17.6l-1.19,1.12c-.22.21-.41.13-.4-.18v-.92c-1.66,0-2.18.16-3,1.15a3.94,3.94,0,0,1,3-4.13v-1c0-.31.18-.38.41-.18l1.19,1.12,1.19,1.12A.52.52,0,0,1,23.26,16.48Z"/></g></g></svg>