<svg xmlns="http://www.w3.org/2000/svg" viewBox="0 0 30 30"><defs><style>.cls-1{fill:#fff;}.cls-2{fill:#268fce;}</style></defs><title>cau_hinh_ca_lam_viec</title><g id="Layer_2" data-name="Layer 2"><g id="Layer_1-2" data-name="Layer 1"><circle class="cls-1" cx="15" cy="15" r="15"/><path class="cls-2" d="M7.1,8.63l-.41-.48-.49.39A1.52,1.52,0,0,1,6.12,6a2,2,0,0,1,1-.53A1.43,1.43,0,0,1,8.42,6l.34.4-.5.43.4.49.24-.13a7.64,7.64,0,0,1,2.79-1c.16,0,.23-.07.21-.24s0-.27,0-.43l-.37,0a.28.28,0,0,1-.29-.31c0-.44,0-.88,0-1.33,0-.23.1-.33.35-.33h2.65c.26,0,.35.09.36.37s0,.79,0,1.18-.07.42-.42.43H14v.64a8,8,0,0,1,3.21,1.18l.42-.49-.49-.42A1.57,1.57,0,0,1,19.65,6c.89.8.92,1.62,0,2.58l-.5-.41-.41.48a7.9,7.9,0,0,1,2.07,5.75H19.08c0-.48-.05-.94-.12-1.4a6.13,6.13,0,1,0-6.77,7.09c.52.05,1.06,0,1.58,0a.4.4,0,0,1,.24.09c.14.12.25.28.39.39a.54.54,0,0,1,.22.49.64.64,0,0,1-.17.39c-.34.46-.84.44-1.32.46a7.84,7.84,0,0,1-7.41-4.67A7.73,7.73,0,0,1,7,8.77Z"/><path class="cls-2" d="M23.8,24.55l-1-.34a.37.37,0,0,0-.37.06,8.49,8.49,0,0,1-.91.53.35.35,0,0,0-.22.28A8.92,8.92,0,0,1,21,26a.6.6,0,0,1-.68.51c-.33,0-.66,0-1,0a.57.57,0,0,1-.64-.5c-.08-.3-.13-.61-.21-.91a.46.46,0,0,0-.19-.24c-.32-.2-.64-.39-1-.56a.42.42,0,0,0-.28,0c-.29.08-.56.19-.85.27a.63.63,0,0,1-.86-.36c-.17-.29-.34-.58-.5-.88a.55.55,0,0,1,.11-.72c.24-.23.49-.44.72-.68a.46.46,0,0,0,.11-.28q0-.55,0-1.1a.46.46,0,0,0-.11-.28c-.22-.22-.47-.41-.69-.64a.59.59,0,0,1-.1-.84c.17-.3.34-.6.52-.89a.56.56,0,0,1,.7-.28l.92.28a.33.33,0,0,0,.33,0c.31-.2.64-.37.95-.57a.49.49,0,0,0,.2-.25c.08-.29.12-.6.21-.89a.59.59,0,0,1,.68-.5c.35,0,.69,0,1,0A.53.53,0,0,1,21,16c.09.32.15.66.24,1a.42.42,0,0,0,.18.22c.32.2.64.39,1,.56a.45.45,0,0,0,.3,0c.34-.09.67-.21,1-.29a.52.52,0,0,1,.6.26c.19.32.38.63.55,1a.58.58,0,0,1-.13.82c-.21.22-.45.41-.67.63a.42.42,0,0,0-.11.26q0,.58,0,1.15a.42.42,0,0,0,.1.26c.21.22.45.41.67.62a.56.56,0,0,1,.14.8c-.18.34-.37.67-.57,1A.62.62,0,0,1,23.8,24.55ZM18,21a1.94,1.94,0,1,0,1.94-1.95A2,2,0,0,0,18,21Z"/><path class="cls-2" d="M11.77,14a1.15,1.15,0,0,1,2.11-.63,1.43,1.43,0,0,0,.3.33l2.47,1.88c.26.19.33.4.21.61s-.33.27-.63.15l-2.91-1.14a.75.75,0,0,0-.32,0A1.15,1.15,0,0,1,11.77,14Zm1.57,0a.42.42,0,1,0-.85,0,.42.42,0,1,0,.85,0Z"/><path class="cls-2" d="M11.33,10.53a.44.44,0,0,1-.46.4.43.43,0,0,1-.4-.46.42.42,0,0,1,.45-.4A.43.43,0,0,1,11.33,10.53Z"/><circle class="cls-2" cx="8.93" cy="14.03" r="0.43" transform="translate(-5.13 22.91) rotate(-89.8)"/><circle class="cls-2" cx="14.94" cy="10.46" r="0.43" transform="translate(4.29 25.26) rotate(-89.23)"/><circle class="cls-2" cx="16.44" cy="11.92" r="0.43" transform="translate(4.36 28.24) rotate(-89.41)"/><ellipse class="cls-2" cx="9.44" cy="12" rx="0.43" ry="0.42" transform="translate(-2.63 21.35) rotate(-89.56)"/><ellipse class="cls-2" cx="17.01" cy="13.93" rx="0.43" ry="0.42" transform="translate(3.01 30.89) rotate(-89.8)"/><ellipse class="cls-2" cx="12.92" cy="9.94" rx="0.42" ry="0.43"/><ellipse class="cls-2" cx="10.99" cy="17.5" rx="0.42" ry="0.43" transform="translate(-0.27 0.18) rotate(-0.9)"/><circle class="cls-2" cx="13.01" cy="18.02" r="0.43" transform="translate(-5.31 30.6) rotate(-88.63)"/><path class="cls-2" d="M9.48,15.62a.41.41,0,0,1,.43.42.42.42,0,1,1-.85,0A.41.41,0,0,1,9.48,15.62Z"/></g></g></svg>