<svg xmlns="http://www.w3.org/2000/svg" viewBox="0 0 30 30"><defs><style>.cls-1{fill:#fff;}.cls-2{fill:#268fce;fill-rule:evenodd;}</style></defs><title>quan_ly_nguoi_dung</title><g id="Layer_2" data-name="Layer 2"><g id="Layer_1-2" data-name="Layer 1"><circle class="cls-1" cx="15" cy="15" r="15"/><path class="cls-2" d="M18.88,16.64a3.09,3.09,0,0,0-1.7-1l-.7,2.15a.41.41,0,0,1-.82,0V16.08a.52.52,0,0,0-1,0v1.71a.41.41,0,0,1-.82,0l-.7-2.15a3.11,3.11,0,0,0-1.7,1,1.49,1.49,0,0,0-.27.8c0,.05,0,.12,0,.18v.72a.78.78,0,0,0,.82.72h6.37a.78.78,0,0,0,.82-.72v-.72c0-.06,0-.13,0-.18A1.49,1.49,0,0,0,18.88,16.64ZM13,12.31c0,1.05.75,2.6,2.16,2.6s2.16-1.55,2.16-2.6a2,2,0,0,0-2.16-1.91A2,2,0,0,0,13,12.31Z"/><path class="cls-2" d="M7.83,17a7.22,7.22,0,0,0,.68,1.62l-1.28,1.4a.94.94,0,0,0,0,1.32l1.38,1.38a.93.93,0,0,0,1.32,0l1.4-1.28a7.17,7.17,0,0,0,1.63.68l.12,1.9A.93.93,0,0,0,14,25h2a.93.93,0,0,0,.94-.94l.12-1.9a7.16,7.16,0,0,0,1.63-.68l1.4,1.28a.93.93,0,0,0,1.32,0l1.38-1.38a.94.94,0,0,0,0-1.32l-1.28-1.4A7.22,7.22,0,0,0,22.17,17l1.9-.12A.93.93,0,0,0,25,16V14a.93.93,0,0,0-.94-.94L22.17,13a7.24,7.24,0,0,0-.68-1.63l1.28-1.4a.94.94,0,0,0,0-1.32L21.38,7.24a.94.94,0,0,0-1.32,0l-1.4,1.28A7.26,7.26,0,0,0,17,7.83l-.12-1.9A.93.93,0,0,0,16,5H14a.93.93,0,0,0-.94.94L13,7.83a7.27,7.27,0,0,0-1.63.68L9.94,7.24a.94.94,0,0,0-1.32,0L7.24,8.62a.94.94,0,0,0,0,1.32l1.28,1.4A7.24,7.24,0,0,0,7.83,13l-1.9.12A.93.93,0,0,0,5,14v2a.93.93,0,0,0,.94.94ZM15,8.87A6.13,6.13,0,1,1,8.87,15,6.13,6.13,0,0,1,15,8.87Z"/></g></g></svg>