<svg xmlns="http://www.w3.org/2000/svg" viewBox="0 0 30 30"><defs><style>.cls-1{fill:#fff;}.cls-2{fill:#268fce;}</style></defs><title>ho_so_bi_tu_choi</title><g id="Layer_2" data-name="Layer 2"><g id="Layer_1-2" data-name="Layer 1"><circle class="cls-1" cx="15" cy="15" r="15"/><path class="cls-2" d="M21.77,16.42a1.88,1.88,0,0,1,1.38.58,1.9,1.9,0,0,1,.58,1.39,1.84,1.84,0,0,1-.57,1.37,1.91,1.91,0,0,1-1.39.56A2,2,0,0,1,20.4,17,1.86,1.86,0,0,1,21.77,16.42Zm1.58-7.13-.26,6.17a.39.39,0,0,1-.39.39H21a.39.39,0,0,1-.39-.38L20.23,9.3a.39.39,0,0,1,.39-.4H23A.39.39,0,0,1,23.35,9.29Z"/><polygon class="cls-2" points="13.52 8.14 6.02 11.55 16 16.08 19.91 14.3 19.64 10.95 13.52 8.14"/><path class="cls-2" d="M19.89,19.9,16,21.67,7,17.44,5.88,18,16,22.69l4.74-2.16A2.35,2.35,0,0,1,19.89,19.9Z"/><path class="cls-2" d="M19.35,17.94,16,19.47,7,15.31l-1.12.51L16,20.49l3.39-1.54a2.33,2.33,0,0,1-.08-.58A2.3,2.3,0,0,1,19.35,17.94Z"/><polygon class="cls-2" points="16 17.26 6.86 13.07 5.73 13.58 16 18.29 19.99 16.43 19.96 15.45 16 17.26"/></g></g></svg>