<svg xmlns="http://www.w3.org/2000/svg" viewBox="0 0 30 30"><defs><style>.cls-1{fill:#fff;}.cls-2{fill:#1182c5;}.cls-3{fill:none;}</style></defs><title>cau_hinh_ngay_nghi_ngay_lam</title><g id="Layer_2" data-name="Layer 2"><g id="Layer_1-2" data-name="Layer 1"><circle class="cls-1" cx="15" cy="15" r="15"/><path class="cls-2" d="M21.83,14.71a3.53,3.53,0,0,0-.7-.42l0-.61a.39.39,0,0,0-.33-.4l-.92-.14a.39.39,0,0,0-.44.28L19.3,14a3.47,3.47,0,0,0-.82.19l-.42-.45a.39.39,0,0,0-.52-.05l-.75.55a.39.39,0,0,0-.11.51l.29.52a3.5,3.5,0,0,0-.48.76l-.59,0a.39.39,0,0,0-.4.33l-.14.92a.39.39,0,0,0,.28.44l.56.16a3.42,3.42,0,0,0,.21.87l-.41.38a.39.39,0,0,0-.05.52l.55.75a.39.39,0,0,0,.51.11l.48-.27a3.45,3.45,0,0,0,.74.46l0,.54a.39.39,0,0,0,.33.4l.91.14a.39.39,0,0,0,.44-.28L20,21a3.46,3.46,0,0,0,.9-.21l.36.39a.39.39,0,0,0,.52.05l.75-.55a.39.39,0,0,0,.11-.51l-.26-.47a3.45,3.45,0,0,0,.49-.81l.54,0a.39.39,0,0,0,.4-.33l.14-.92a.39.39,0,0,0-.28-.44L23.16,17a3.38,3.38,0,0,0-.22-.85l.42-.39a.39.39,0,0,0,.05-.52l-.55-.75a.39.39,0,0,0-.51-.11Zm-1.24,4a1.53,1.53,0,1,1,.34-2.14,1.54,1.54,0,0,1-.34,2.14Zm0,0"/><path class="cls-3" d="M11.51,15.9a.34.34,0,0,0-.34-.34H9.74a.34.34,0,0,0-.34.34v.2H7.74a.13.13,0,0,0-.13.13v.87a.13.13,0,0,0,.13.13H9.4v.2a.34.34,0,0,0,.34.34h1.43a.34.34,0,0,0,.34-.34v-.2h2.73a5.67,5.67,0,0,1,.19-1.12H11.51Z"/><path class="cls-3" d="M16.54,12.68a.34.34,0,0,0-.34-.34H14.77a.34.34,0,0,0-.34.34v.2H13.6v-.2a.34.34,0,0,0-.34-.34H11.83a.34.34,0,0,0-.34.34v.2H7.74a.13.13,0,0,0-.13.13v.87a.13.13,0,0,0,.13.13h3.75v.2a.34.34,0,0,0,.34.34h1.43a.34.34,0,0,0,.34-.34V14h.84v.2a.34.34,0,0,0,.34.34h.36a5.71,5.71,0,0,1,1.64-1.66h-.24Z"/><rect class="cls-2" x="8.95" y="8.25" width="1.67" height="2.31" rx="0.38" ry="0.38"/><rect class="cls-2" x="15.18" y="8.28" width="1.67" height="2.31" rx="0.38" ry="0.38"/><path class="cls-2" d="M14.24,17.22H11.51v.2a.34.34,0,0,1-.34.34H9.74a.34.34,0,0,1-.34-.34v-.2H7.74a.13.13,0,0,1-.13-.13v-.87a.13.13,0,0,1,.13-.13H9.4v-.2a.34.34,0,0,1,.34-.34h1.43a.34.34,0,0,1,.34.34v.2H14.4a0,0,0,0,0,0,0,5.66,5.66,0,0,1,.7-1.54h-.36a.34.34,0,0,1-.34-.34V14H13.6v.2a.34.34,0,0,1-.34.34H11.83a.34.34,0,0,1-.34-.34V14H7.74a.13.13,0,0,1-.13-.13V13a.13.13,0,0,1,.13-.13h3.75v-.2a.34.34,0,0,1,.34-.34h1.43a.34.34,0,0,1,.34.34v.2h.84v-.2a.34.34,0,0,1,.34-.34H16.2a.34.34,0,0,1,.34.34v.2h.24a5.65,5.65,0,0,1,3-.93,0,0,0,0,0,0,0V9.82A1.28,1.28,0,0,0,18.5,8.54H17.39a0,0,0,0,0,0,0v2.23a.34.34,0,0,1-.34.34H14.92a.34.34,0,0,1-.34-.34V8.58a0,0,0,0,0,0,0H11.21a0,0,0,0,0,0,0v2.23a.34.34,0,0,1-.34.34H8.75a.34.34,0,0,1-.34-.34V8.58a0,0,0,0,0,0,0H7.28A1.28,1.28,0,0,0,6,9.82V18.2a1.28,1.28,0,0,0,1.28,1.28h7.2a0,0,0,0,0,0-.06,5.66,5.66,0,0,1-.3-1.8C14.22,17.49,14.23,17.35,14.24,17.22Z"/></g></g></svg>