<svg xmlns="http://www.w3.org/2000/svg" viewBox="0 0 30 30"><defs><style>.cls-1{fill:#fff;}.cls-2,.cls-3{fill:#1182c5;}.cls-2{fill-rule:evenodd;}</style></defs><title>thong_ke_danh_sach_dn</title><g id="Layer_2" data-name="Layer 2"><g id="Layer_1-2" data-name="Layer 1"><circle class="cls-1" cx="15" cy="15" r="15"/><path class="cls-2" d="M18.37,15.43H11.63a1.07,1.07,0,1,0,0,2.12h6.75a1.07,1.07,0,1,0,0-2.12Zm0,3.85H11.63a1.07,1.07,0,1,0,0,2.11h6.75a1.07,1.07,0,1,0,0-2.11ZM6.88,22.76a1.67,1.67,0,0,0,1.67,1.67H21.46a1.67,1.67,0,0,0,1.67-1.67V8.59a1.67,1.67,0,0,0-1.67-1.67h-3.4a3.13,3.13,0,0,0-6.12,0H8.54A1.67,1.67,0,0,0,6.88,8.59ZM9.26,8.56h2.22v.24c0,.55.45.79,1,.79h4.9c.56,0,1-.24,1-.79V8.56h2.22a1,1,0,0,1,1,1V22a1,1,0,0,1-1,1H9.26a1,1,0,0,1-1-1V9.56A1,1,0,0,1,9.26,8.56Zm4.69-1a1,1,0,1,1,1,1A1,1,0,0,1,14,7.55Z"/><path class="cls-3" d="M19.68,11.52l-3.19,2.86a.29.29,0,0,1-.29.06L12.26,13A.29.29,0,0,0,12,13l-1.38,1.3-.73-.77,1.86-1.76a.29.29,0,0,1,.3-.06l4,1.49a.29.29,0,0,0,.29-.06L19,10.73l-.33-.36,1.77-.28L20,11.85Z"/></g></g></svg>