<svg xmlns="http://www.w3.org/2000/svg" viewBox="0 0 30 30"><defs><style>.cls-1{fill:#fff;}.cls-2{fill:#268fce;}</style></defs><title>cau_hinh_co_cau_to_chuc_cho_co_quan_bao_hiem</title><g id="Layer_2" data-name="Layer 2"><g id="Layer_1-2" data-name="Layer 1"><circle class="cls-1" cx="15" cy="15" r="15"/><path class="cls-2" d="M10.35,13.82a2.61,2.61,0,1,1,5.05.93h3.36a5.9,5.9,0,0,0-.05-2.13l1-.93a.49.49,0,0,0,.1-.61L18.79,9.22A.49.49,0,0,0,18.21,9l-1.33.44a5.88,5.88,0,0,0-2.09-1.21l-.28-1.37A.49.49,0,0,0,14,6.47H11.89a.49.49,0,0,0-.48.39l-.28,1.37A5.87,5.87,0,0,0,9,9.44L7.71,9a.49.49,0,0,0-.58.22L6.07,11.07a.49.49,0,0,0,.1.61l1,.93a5.89,5.89,0,0,0,0,2.42l-1,.93a.49.49,0,0,0-.1.61l1.07,1.85a.49.49,0,0,0,.57.22L9,18.19a5.88,5.88,0,0,0,2.09,1.21l.28,1.37a.49.49,0,0,0,.48.39h1.66v-4.8a2.61,2.61,0,0,1-3.2-2.54Zm0,0"/><path class="cls-2" d="M23.56,15.43H14.67a.44.44,0,0,0-.44.44v7.22a.44.44,0,0,0,.44.44h8.89a.44.44,0,0,0,.44-.44V15.87a.44.44,0,0,0-.44-.44Zm-.82,6.88H15.5V18h7.24Zm0,0"/><path class="cls-2" d="M18.28,21.4a.52.52,0,0,0,.74,0l1.9-1.9a.52.52,0,1,0-.74-.74l-1.53,1.53-.6-.6a.52.52,0,0,0-.74.74Zm0,0"/></g></g></svg>