<svg xmlns="http://www.w3.org/2000/svg" xmlns:xlink="http://www.w3.org/1999/xlink" viewBox="0 0 19.84 19.84"><defs><style>.cls-1{fill:none;}.cls-2{fill:#f2f2f2;}.cls-3{clip-path:url(#clip-path);}</style><clipPath id="clip-path"><circle class="cls-1" cx="9.92" cy="9.92" r="9.92"/></clipPath></defs><title>ico_user</title><g id="Layer_2" data-name="Layer 2"><g id="Layer_1-2" data-name="Layer 1"><g id="New_Symbol_4" data-name="New Symbol 4"><path class="cls-2" d="M9.92,1A8.92,8.92,0,1,1,1,9.92,8.93,8.93,0,0,1,9.92,1m0-1a9.92,9.92,0,1,0,9.92,9.92A9.92,9.92,0,0,0,9.92,0Z"/><g class="cls-3"><path class="cls-2" d="M17,15.82v0c-.48-2-3.83-2.61-4.56-2.72h0a3.87,3.87,0,0,1-.92-1.63,2.12,2.12,0,0,0,.5-.91l.44-1.19.17,0a.56.56,0,0,0,.56-.56V8a.56.56,0,0,0-.44-.55V6.12A2.3,2.3,0,0,0,11.3,4,2.29,2.29,0,0,0,8.54,4,2.3,2.3,0,0,0,7.14,6.12V7.44A.56.56,0,0,0,6.7,8V8.8a.56.56,0,0,0,.56.56l.16,0,.44,1.19h0a2.11,2.11,0,0,0,.54.95,3.91,3.91,0,0,1-.92,1.6h0c-.73.1-4.08.69-4.56,2.72v0l-.46,3.29a.24.24,0,0,0,.24.27H17.18a.24.24,0,0,0,.24-.27Z"/></g></g></g></g></svg>