<svg xmlns="http://www.w3.org/2000/svg" viewBox="0 0 30 30"><defs><style>.cls-1{fill:#fff;}.cls-2{fill:#268fce;}</style></defs><title>cau_hinh_ma_so_thue_dac_biet</title><g id="Layer_2" data-name="Layer 2"><g id="Layer_1-2" data-name="Layer 1"><circle class="cls-1" cx="15" cy="15" r="15"/><path class="cls-2" d="M10.35,13.82a2.61,2.61,0,1,1,5.05.93h3.36a5.9,5.9,0,0,0-.05-2.13l1-.93a.49.49,0,0,0,.1-.61L18.79,9.22A.49.49,0,0,0,18.21,9l-1.33.44a5.88,5.88,0,0,0-2.09-1.21l-.28-1.37A.49.49,0,0,0,14,6.47H11.89a.49.49,0,0,0-.48.39l-.28,1.37A5.87,5.87,0,0,0,9,9.44L7.71,9a.49.49,0,0,0-.58.22L6.07,11.07a.49.49,0,0,0,.1.61l1,.93a5.89,5.89,0,0,0,0,2.42l-1,.93a.49.49,0,0,0-.1.61l1.07,1.85a.49.49,0,0,0,.57.22L9,18.19a5.88,5.88,0,0,0,2.09,1.21l.28,1.37a.49.49,0,0,0,.48.39h1.66v-4.8a2.61,2.61,0,0,1-3.2-2.54Zm0,0"/><path class="cls-2" d="M24.06,15.83H15.17c-.24,0-.44.13-.44.29v4.76c0,.16.2.29.44.29h8.89c.24,0,.44-.13.44-.29V16.12c0-.16-.2-.29-.44-.29Zm-.82,4.53"/><circle class="cls-1" cx="16.77" cy="18.5" r="1.04"/><circle class="cls-1" cx="19.62" cy="18.5" r="1.04"/><circle class="cls-1" cx="22.47" cy="18.5" r="1.04"/></g></g></svg>