<svg xmlns="http://www.w3.org/2000/svg" viewBox="0 0 30 30"><defs><style>.cls-1{fill:#fff;}.cls-2{fill:#268fce;}</style></defs><title>bao_cao_tong_hop_theo_thu_tuc</title><g id="Layer_2" data-name="Layer 2"><g id="Layer_1-2" data-name="Layer 1"><circle class="cls-1" cx="15" cy="15" r="15"/><path class="cls-2" d="M24.21,7V18.75A3.33,3.33,0,0,1,21.49,22L10.1,23.88a1,1,0,0,1-.75-.36,1,1,0,0,1-.21-.64v-3A1,1,0,0,1,10.45,19h0a1,1,0,0,1,.59.88v1.51l7-3.49a1,1,0,0,1,1.39.87,1.4,1.4,0,0,0,1.39,1.41H21a1.44,1.44,0,0,0,1.27-1.45V7.93H11.07v.74a1,1,0,0,1-.77.94h0a1,1,0,0,1-1.13-.94V7a1,1,0,0,1,1-1H23.25A1,1,0,0,1,24.21,7Z"/><path class="cls-2" d="M11.73,12.21a.39.39,0,0,0-.3-.27L9.6,11.56a.39.39,0,0,1-.25-.17l-.57-.84a.39.39,0,0,0-.61-.06L5.91,12.78a.39.39,0,0,0,.06.61l.84.56a.39.39,0,0,1,.17.25L7.34,16a.39.39,0,0,0,.27.3l5.22,1.57-2.28-2.28a.43.43,0,0,0-.41-.09,1,1,0,1,1,.78-.78.43.43,0,0,0,.09.41l2.29,2.3Z"/><path class="cls-2" d="M13.92,11.41H17.6c.31,0,.57-.3.59-.72a.72.72,0,0,0-.52-.81H13.92a.72.72,0,0,0-.52.81A.69.69,0,0,0,13.92,11.41Z"/><path class="cls-2" d="M14.11,13.85h5a.76.76,0,1,0,.09-1.52H14.11a.76.76,0,0,0,0,1.52Z"/></g></g></svg>