<svg xmlns="http://www.w3.org/2000/svg" viewBox="0 0 83.63 83.63"><defs><style>.cls-1{fill:#2890cf;}.cls-2{fill:#00364c;}.cls-3{fill:#f9f9fa;}.cls-4{fill:#fff;}</style></defs><title>logo</title><g id="Layer_2" data-name="Layer 2"><g id="Layer_1-2" data-name="Layer 1"><circle class="cls-1" cx="41.82" cy="41.82" r="41.82"/><path class="cls-2" d="M9.87,48.27a8.41,8.41,0,0,1,.44,1.43,2.64,2.64,0,0,1,0,1.65,1.19,1.19,0,0,1-.91.79A1.33,1.33,0,0,1,8,51.49H8A1.42,1.42,0,0,1,6.86,52.9a1.48,1.48,0,0,1-1.26-.28,3.1,3.1,0,0,1-1-1.92,9.87,9.87,0,0,1-.2-1.24Zm-4.51,2a4.66,4.66,0,0,0,.09.53c.14.64.52,1.16,1.2,1s.78-.75.63-1.44l-.11-.5Zm2.55-.56.11.51c.16.69.57,1,1,.91s.67-.56.53-1.19a2.81,2.81,0,0,0-.17-.56Z"/><path class="cls-2" d="M7.49,55l-1.68.06-.35-1,6-.13.43,1.24L7.08,58.74l-.36-1,1.35-1Zm1.27,1.27,1.18-.87c.29-.21.63-.43.91-.61v0c-.34,0-.74.07-1.09.09l-1.46,0Zm3.18-2.05c.38,0,.55.25.81.17a.24.24,0,0,0,.16-.33.54.54,0,0,0-.41-.28l.09-.39a1,1,0,0,1,.89.68.71.71,0,0,1-.38.93c-.44.15-.65-.19-1.12-.27Z"/><path class="cls-2" d="M12.36,62.92a2.69,2.69,0,0,1-3.88-1.08,2.58,2.58,0,0,1,1.41-3.58,2.73,2.73,0,0,1,3.86,1.06A2.57,2.57,0,0,1,12.36,62.92Zm-2-3.7c-1,.51-1.59,1.43-1.14,2.31s1.53,1,2.59.45,1.62-1.39,1.16-2.3S11.44,58.7,10.39,59.22Z"/><path class="cls-2" d="M16.72,64.31l-1.77,1.41,1.51,1.85,1.77-1.41.65.8-4.42,3.52-.65-.8,1.95-1.55-1.51-1.85L12.3,67.83,11.65,67l4.41-3.52Z"/><path class="cls-2" d="M20.31,68.26l-3.94,4-.75-.71,3.94-4Z"/><path class="cls-2" d="M21.6,73.32,19.9,72l-1,1.31,1.9,1.44-.52.67-2.72-2.07L21,68.92l2.62,2-.52.67-1.8-1.37-.89,1.15,1.7,1.29Zm1.82-4.19v1.26l-.58-.44v-.68h0l-.67.19L21.62,69l1.22-.32Zm.2.78c.31-.21.6-.09.76-.29a.25.25,0,0,0-.05-.37.52.52,0,0,0-.5,0l-.14-.36a1,1,0,0,1,1.05.07.66.66,0,0,1,.18.93c-.26.34-.6.17-1,.36Z"/><path class="cls-2" d="M26.9,76.44c.3-.66.66-1.46,1-2.14h0c-.48.53-1,1.1-1.57,1.62l-1.84,1.81-.72-.35.41-2.48c.13-.74.29-1.51.48-2.21h0c-.35.64-.79,1.43-1.17,2.09l-1.13,2-.87-.43,2.88-4.85,1.22.6-.36,2.35c-.12.67-.26,1.35-.41,2h0c.41-.48.9-1,1.39-1.5l1.72-1.67,1.21.59L26.86,79l-.9-.44Z"/><path class="cls-2" d="M33.3,80.71,33,79.49c-.14-.48-.23-.8-.31-1.15h0c-.2.29-.42.54-.74.92l-.8,1-1.16-.26,2.28-2.39-.95-3.06,1.16.26L32.75,76c.1.38.17.68.25,1h0c.23-.31.4-.52.65-.81l.85-1,1.16.26-2.24,2.3,1,3.18Z"/><path class="cls-2" d="M36.87,79.67l-.64,1.54-1.06-.11,2.36-5.4,1.31.12,1.28,5.76L39,81.47l-.36-1.63Zm1.69-.62-.31-1.42c-.07-.35-.13-.74-.18-1.07h0c-.12.31-.24.69-.37,1l-.57,1.33Zm-1.42-3.73c0-.61.32-.94.71-.9a1,1,0,0,1,.5.21.84.84,0,0,0,.37.19c.13,0,.21-.05.26-.32l.49,0c-.05.64-.3.91-.71.87a1,1,0,0,1-.51-.21.87.87,0,0,0-.36-.18c-.12,0-.2.1-.24.33Z"/><path class="cls-2" d="M43.89,76l.18,2.24L46.46,78l-.18-2.24,1-.08.44,5.59-1,.08-.2-2.46-2.39.19.2,2.47-1,.08L42.86,76Z"/><path class="cls-2" d="M53.69,77a2.65,2.65,0,0,1-1.89,3.53,2.62,2.62,0,0,1-3.25-2.12,2.68,2.68,0,0,1,1.87-3.51A2.62,2.62,0,0,1,53.69,77Zm-3.23-3.35,1.09.75-.75.19-.59-.41h0l-.32.64-.74.19.58-1.17Zm-.85,4.47c.29,1.11,1.08,1.84,2,1.6s1.28-1.27,1-2.41-1-1.86-2-1.6S49.31,77,49.6,78.11Zm2,3.56a.51.51,0,0,1,.38-.61.49.49,0,0,1,.6.36.5.5,0,0,1-.35.61A.53.53,0,0,1,51.62,81.68Z"/><path class="cls-2" d="M54.51,73.62l2.12,5.21-1,.38L53.54,74Z"/><path class="cls-2" d="M60.66,76.85,56.16,73l1-.57,2,1.79c.56.5,1.06,1,1.55,1.47h0c-.22-.65-.4-1.34-.56-2L59.48,71l.95-.56,1.25,5.81Z"/><path class="cls-2" d="M61.51,69.5,65,74l-.82.62-3.45-4.45Z"/><path class="cls-2" d="M66.76,69.09l-1.57,1.43,1.13,1.21,1.76-1.6.57.62L66.13,73l-3.84-4.13,2.43-2.21.58.62-1.67,1.51,1,1.06,1.57-1.43Zm-3.83-2.5,1.31.15-.57.52L63,67.17h0l0,.71-.56.51-.05-1.3Zm4.86,6.53a.49.49,0,0,1,0-.71.51.51,0,0,1,.69.74A.52.52,0,0,1,67.78,73.12Z"/><path class="cls-2" d="M66.69,65.81,65.63,67,65,66.46l2.81-3.2.66.56L67.37,65,71,68.16l-.68.77Z"/><path class="cls-2" d="M73.82,64.6l-4.78-3,.63-1,2.84.08a15.6,15.6,0,0,1,2.12.21v0c-.67-.35-1.3-.72-2-1.18L71,58.63l.52-.8,4.78,3-.58.89-2.9-.09a20.18,20.18,0,0,1-2.2-.2v0c.64.35,1.28.75,2.06,1.24l1.71,1.08Z"/><path class="cls-2" d="M76.09,57.77l1.22,1.15-.48.95-4.24-4.13.59-1.17,5.89.9-.5,1-1.67-.26Zm0-1.78-1.45-.23c-.36-.06-.75-.15-1.08-.22v0c.25.22.57.47.82.71l1.05,1Z"/><path class="cls-2" d="M79.06,49.19c-.7-.22-1.54-.49-2.25-.77v0c.58.41,1.22.89,1.8,1.38l2,1.62-.28.74L77.79,52c-.75,0-1.55-.13-2.26-.24v0c.69.28,1.52.62,2.23.93l2.09.91-.34.89-5.17-2.32L74.79,51l2.4.11c.69,0,1.38.11,2,.2v0c-.52-.35-1.11-.77-1.65-1.21l-1.85-1.51.47-1.25L81.62,49l-.35.93Z"/><path class="cls-2" d="M64.55,21.37c-4.16-5.16-10.39-1.86-10.39-1.86.92-4.85-.92-8.5-5.26-10.06A22.11,22.11,0,0,1,41.75,5.2c-.22.43-2.11,2-7.81,4.42S29.12,19,29.12,19c-3.14-1.11-7.37-1.51-10.75,2.35a30.51,30.51,0,0,1-5.76,5.37c2.74,3.69.4,9.53,3.27,12.32,2.08,2,6.4,3.63,6.4,3.63-4.73,4.21-3.79,7.21-1.46,11.14a26.6,26.6,0,0,1,3,6.58c5-.29,8.29,2.25,12,1.21a9.15,9.15,0,0,0,2.62-1.35V71.76h6.54V60.35A7.76,7.76,0,0,0,51,61.87a67.7,67.7,0,0,1,8.81-1c.18-2.37.88-2.83,4-8S62,43.13,62,43.13c5.17-.91,7.5-5,7.41-9.41a11.79,11.79,0,0,1,2-7.07S68.71,26.53,64.55,21.37Zm.91,12.91c.07,3.76-1.92,7.22-6.35,8,0,0,4.31,4,1.6,8.32s-3.3,4.75-3.45,6.76a58.65,58.65,0,0,0-7.56.83,6.52,6.52,0,0,1-4.8-1c0-2.45.17-8.38,1.57-11.81,2.05-5,11.24-15.75,11.24-15.75H53.25s-8.17,8-11.29,17l-.21.86-.22-.86c-3.32-9-12-17-12-17H24.74s9.5,10.85,12,15.75c1.72,3.4,1.77,9.27,1.71,11.75a7,7,0,0,1-1.78.84c-3.15.88-6-1.27-10.26-1a22.54,22.54,0,0,0-2.55-5.59c-2-3.33-2.8-5.88,1.25-9.46a19.65,19.65,0,0,1-5.49-3.09c-2.46-2.37-.45-7.33-2.8-10.46a26,26,0,0,0,4.94-4.56c2.9-3.28,6.53-2.94,9.22-2,0,0-.75-5.89,4.14-8s6.5-3.39,6.69-3.76a19,19,0,0,0,6.12,3.61c3.72,1.33,5.3,4.42,4.51,8.54,0,0,5.34-2.8,8.91,1.58s5.83,4.49,5.83,4.49A10,10,0,0,0,65.46,34.28Z"/><ellipse class="cls-2" cx="41.61" cy="33.74" rx="4.58" ry="4.53"/><path class="cls-3" d="M10.18,47.36a8.51,8.51,0,0,1,.44,1.43,2.67,2.67,0,0,1,0,1.65,1.19,1.19,0,0,1-.9.8,1.31,1.31,0,0,1-1.39-.65h0A1.42,1.42,0,0,1,7.19,52a1.46,1.46,0,0,1-1.25-.28A3.12,3.12,0,0,1,5,49.8a9.91,9.91,0,0,1-.2-1.25Zm-4.47,2a4.63,4.63,0,0,0,.09.53c.14.64.51,1.16,1.19,1s.77-.75.62-1.44L7.5,49Zm2.52-.56.11.52c.15.69.57,1,1,.91s.66-.56.52-1.19a2.86,2.86,0,0,0-.17-.56Z"/><path class="cls-3" d="M7.82,54.13l-1.66.06-.34-1,5.9-.13.43,1.24L7.42,57.86l-.36-1,1.34-1ZM9.08,55.4l1.16-.87c.29-.21.62-.43.9-.61v0c-.33,0-.73.07-1.08.09L8.61,54Zm3.16-2.06c.38,0,.55.25.8.17a.24.24,0,0,0,.16-.33.54.54,0,0,0-.4-.28l.09-.39a1,1,0,0,1,.88.68.71.71,0,0,1-.38.93c-.43.15-.65-.19-1.11-.27Z"/><path class="cls-3" d="M12.65,62A2.65,2.65,0,0,1,8.8,61a2.59,2.59,0,0,1,1.4-3.59A2.69,2.69,0,0,1,14,58.44,2.59,2.59,0,0,1,12.65,62Zm-2-3.71c-1,.51-1.57,1.43-1.13,2.31s1.51,1,2.56.45,1.6-1.39,1.14-2.31S11.73,57.82,10.7,58.34Z"/><path class="cls-3" d="M17,63.43l-1.75,1.41L16.7,66.7l1.75-1.42.64.8-4.37,3.53-.64-.8L16,67.26l-1.49-1.85L12.59,67l-.64-.8,4.37-3.53Z"/><path class="cls-3" d="M20.52,67.39l-3.9,4-.74-.71,3.9-4Z"/><path class="cls-3" d="M21.8,72.46l-1.68-1.29-1,1.31L21,73.93l-.52.67-2.69-2.07,3.43-4.46,2.59,2-.51.67-1.78-1.37-.88,1.15,1.68,1.29Zm1.8-4.2v1.26L23,69.08V68.4h0l-.66.19-.56-.43L23,67.82Zm.2.78c.31-.21.6-.09.75-.3a.26.26,0,0,0-.05-.37.51.51,0,0,0-.49,0L23.86,68a1,1,0,0,1,1,.07.66.66,0,0,1,.18.93c-.26.34-.6.17-1,.36Z"/><path class="cls-3" d="M27,75.59c.29-.66.65-1.47,1-2.14h0c-.47.53-1,1.1-1.56,1.63l-1.82,1.82-.71-.35.4-2.49c.13-.74.29-1.52.47-2.21h0c-.35.64-.78,1.43-1.16,2.1l-1.12,2-.86-.43,2.85-4.86,1.21.6-.35,2.35c-.11.68-.26,1.35-.41,2h0c.41-.48.89-1,1.38-1.51L28,72.36l1.19.6L27,78.14l-.9-.45Z"/><path class="cls-3" d="M33.39,79.88,33,78.65c-.14-.48-.23-.81-.31-1.16h0c-.2.29-.42.55-.73.92l-.79,1L30,79.11l2.26-2.4-.94-3.06,1.15.26.33,1.26c.1.38.17.68.24,1h0c.23-.31.39-.52.64-.82l.84-1,1.15.26L33.52,77l1,3.18Z"/><path class="cls-3" d="M36.93,78.83l-.64,1.54-1.05-.11,2.33-5.42,1.3.13,1.27,5.77-1.09-.11L38.7,79Zm1.67-.62-.31-1.42c-.07-.35-.13-.74-.18-1.07h0c-.12.31-.24.7-.37,1l-.57,1.34Zm-1.4-3.74c0-.62.32-.94.7-.9a1,1,0,0,1,.5.21.84.84,0,0,0,.37.19c.13,0,.21-.05.26-.32l.49,0c-.05.64-.3.91-.7.87a1,1,0,0,1-.51-.21.85.85,0,0,0-.36-.18c-.12,0-.2.1-.24.34Z"/><path class="cls-3" d="M43.88,75.1l.18,2.24,2.37-.19-.18-2.24,1-.08.44,5.6-1,.08L46.5,78l-2.37.19.2,2.47-1,.08-.44-5.6Z"/><path class="cls-3" d="M53.59,76.14a2.66,2.66,0,0,1-1.87,3.54,2.6,2.6,0,0,1-3.22-2.13A2.69,2.69,0,0,1,50.35,74,2.6,2.6,0,0,1,53.59,76.14Zm-3.2-3.36,1.08.75-.74.19-.59-.41h0L49.8,74l-.74.19L49.64,73Zm-.85,4.48c.28,1.11,1.07,1.84,2,1.6s1.27-1.27,1-2.42-1-1.86-2-1.61S49.25,76.15,49.54,77.27Zm2,3.57a.51.51,0,0,1,.38-.61.49.49,0,0,1,.59.37.5.5,0,0,1-.35.61A.52.52,0,0,1,51.54,80.84Z"/><path class="cls-3" d="M54.4,72.77,56.5,78l-1,.38-2.1-5.22Z"/><path class="cls-3" d="M60.5,76,56,72.12l1-.58,2,1.79c.55.5,1,1,1.53,1.47h0c-.22-.65-.4-1.34-.56-2l-.63-2.62.94-.56,1.23,5.82Z"/><path class="cls-3" d="M61.33,68.64l3.42,4.46-.81.63-3.42-4.46Z"/><path class="cls-3" d="M66.54,68.23,65,69.66l1.12,1.21,1.74-1.6.57.62-2.49,2.3-3.8-4.13,2.4-2.21.57.62L63.43,68l1,1.07L66,67.61Zm-3.8-2.51,1.3.15-.56.52-.71-.08h0l0,.71-.56.52-.05-1.3Zm4.81,6.54a.5.5,0,0,1,.74-.68.5.5,0,1,1-.74.68Z"/><path class="cls-3" d="M66.47,64.94l-1.05,1.21-.65-.56,2.78-3.21.65.56-1.06,1.22,3.6,3.12-.67.77Z"/><path class="cls-3" d="M73.54,63.73l-4.73-3,.63-1,2.81.08a15.18,15.18,0,0,1,2.1.21v0c-.67-.35-1.29-.72-2-1.18l-1.65-1.06.51-.8,4.73,3-.57.89-2.87-.09a19.65,19.65,0,0,1-2.18-.2v0c.63.36,1.26.75,2,1.25L74,62.94Z"/><path class="cls-3" d="M75.78,56.88,77,58l-.48.95-4.2-4.14.59-1.17,5.84.9-.49,1-1.65-.26Zm0-1.79-1.44-.23c-.35-.06-.74-.15-1.07-.22v0c.25.22.56.47.82.71l1,1Z"/><path class="cls-3" d="M78.72,48.29c-.69-.22-1.52-.49-2.23-.77v0c.58.41,1.2.9,1.78,1.38l2,1.62-.28.74-2.51-.14c-.75,0-1.54-.13-2.24-.24v0c.68.28,1.5.62,2.21.93l2.07.91-.34.9L74,51.34l.47-1.26,2.37.11c.69,0,1.37.11,2,.2v0c-.52-.35-1.1-.78-1.64-1.21l-1.84-1.52.47-1.25,5.38,1.67-.35.93Z"/><path class="cls-4" d="M64.35,20.41c-4.13-5.17-10.29-1.87-10.29-1.87C55,13.68,53.14,10,48.84,8.46a21.88,21.88,0,0,1-7.08-4.26c-.22.43-2.09,2-7.73,4.43S29.25,18,29.25,18c-3.11-1.11-7.3-1.52-10.65,2.36a30.36,30.36,0,0,1-5.71,5.38c2.72,3.7.4,9.55,3.24,12.34,2.07,2,6.34,3.64,6.34,3.64C17.79,46,18.71,49,21,52.9A26.81,26.81,0,0,1,24,59.49c4.91-.29,8.21,2.26,11.85,1.21a9,9,0,0,0,2.59-1.35V70.9h6.48V59.47a7.63,7.63,0,0,0,6,1.52,66.39,66.39,0,0,1,8.73-1c.17-2.37.87-2.83,4-8s-1.85-9.82-1.85-9.82c5.13-.91,7.43-5,7.34-9.43a11.91,11.91,0,0,1,2-7.08S68.47,25.58,64.35,20.41Zm.9,12.94c.07,3.76-1.9,7.23-6.29,8,0,0,4.27,4,1.59,8.34s-3.27,4.76-3.42,6.78a57.43,57.43,0,0,0-7.49.84,6.4,6.4,0,0,1-4.76-1c0-2.45.17-8.4,1.56-11.83,2-5,11.13-15.78,11.13-15.78H53.15S45.06,36.73,42,45.76l-.21.86-.22-.86c-3.29-9-11.92-17.08-11.92-17.08H24.91s9.41,10.87,11.86,15.78c1.71,3.41,1.76,9.29,1.69,11.77a6.88,6.88,0,0,1-1.76.84c-3.12.88-5.95-1.28-10.16-1A22.72,22.72,0,0,0,24,50.43c-2-3.34-2.78-5.89,1.24-9.48a19.39,19.39,0,0,1-5.44-3.09c-2.44-2.37-.45-7.34-2.78-10.48a25.88,25.88,0,0,0,4.9-4.57c2.87-3.29,6.47-2.94,9.13-2,0,0-.74-5.9,4.1-8s6.44-3.39,6.63-3.76a18.79,18.79,0,0,0,6.07,3.62c3.69,1.33,5.25,4.43,4.47,8.56,0,0,5.29-2.8,8.82,1.59s5.77,4.5,5.77,4.5A10.06,10.06,0,0,0,65.25,33.35Z"/><circle class="cls-3" cx="41.62" cy="32.8" r="4.54"/></g></g></svg>